{"title":"Avishai.Cohen.Trio.Jazz.Sous.les.Pommiers.Coutances.France.2013","uid":11608927,"size":5110093310,"categoryP":"video","categoryS":"music_videos","magnet":"?xt=urn:btih:756982bce33a1c32ab7a8e3689d7a9dfc46bd5bf&amp;dn=Avishai.Cohen.Trio.Jazz.Sous.les.Pommiers.Coutances.France.2013&amp;tr=udp%3A%2F%2Ftracker.openbittorrent.com%3A80&amp;tr=udp%3A%2F%2Fopen.demonii.com%3A1337&amp;tr=udp%3A%2F%2Ftracker.coppersurfer.tk%3A6969&amp;tr=udp%3A%2F%2Fexodus.desync.com%3A6969","seeders":0,"leechers":2,"uploader":"user101966","files":3,"time":1417428038,"description":"This content, as well, is another gift from our Eastern friends existing entirely on servers in what used to be the Soviet Union. However, I have my preferences and I do not prefer an MP4 file &quot;sans condom&quot; as it were. Also, the choice of AAC for audio is too incompatible with most desktop systems I figured I might as well change it to Dolby (which is compatible with all desktops and DVD players).\n\nSo that makes me the primary seed for this one, but it doesn't take long to get it up there. \n\nI wanted to create a 720p version of this but I have so many encodings awaiting CPU cycles already that I just can't spare any more to make that conversion. As it is, in an AVI container and with Dolby audio, even with its ridiculously high data rate of 11,000 Kbps average, it actually plays perfectly on my crummy laptop! The MP4 on its own did not; it played for a few seconds then the sound would stop while the video kept on going and I'd have to shut down Media Player to regain control.\n\nI did put this up on YouTube so that's one way to get a 720p version (download from YouTube) but the degradation would be so bad that it'd hardly be worth saving to disk. A 720p wide screen video aught to be at least 5,000 Kbps video to look like &quot;high definition&quot;. YouTube's 720p wide screen videos are only about 1,000 Kbps video data rate.\n\nHere are the file details:\n--------------------------\nGeneral\nComplete name                            : Avishai Cohen Trio - Jazz Sous les Pommiers (2013).avi\nFormat                                   : AVI\nFormat/Info                              : Audio Video Interleave\nFormat profile                           : OpenDML\nFile size                                : 4.76 GiB\nDuration                                 : 59mn 16s\nOverall bit rate mode                    : Variable\nOverall bit rate                         : 11.5 Mbps\n\nVideo\nID                                       : 0\nFormat                                   : AVC\nFormat/Info                              : Advanced Video Codec\nFormat profile                           : &lt;a class=&quot;__cf_email__&quot; href=&quot;/cdn-cgi/l/email-protection&quot; data-cfemail=&quot;2b664a42456b671f051b&quot;&gt;[email&amp;#160;protected]&lt;/a&gt;&lt;script cf-hash='f9e31' type=&quot;text/javascript&quot;&gt;\n/* &lt;![CDATA[ */!function(){try{var t=&quot;currentScript&quot;in document?document.currentScript:function(){for(var t=document.getElementsByTagName(&quot;script&quot;),e=t.length;e--;)if(t[e].getAttribute(&quot;cf-hash&quot;))return t[e]}();if(t&amp;&amp;t.previousSibling){var e,r,n,i,c=t.previousSibling,a=c.getAttribute(&quot;data-cfemail&quot;);if(a){for(e=&quot;&quot;,r=parseInt(a.substr(0,2),16),n=2;a.length-n;n+=2)i=parseInt(a.substr(n,2),16)^r,e+=String.fromCharCode(i);e=document.createTextNode(e),c.parentNode.replaceChild(e,c)}}}catch(u){}}();/* ]]&gt; */&lt;/script&gt;\nFormat settings, CABAC                   : Yes\nFormat settings, ReFrames                : 2 frames\nFormat settings, GOP                     : M=3, N=30\nCodec ID                                 : H264\nDuration                                 : 59mn 16s\nBit rate mode                            : Variable\nBit rate                                 : 11.1 Mbps\nMaximum bit rate                         : 12.0 Mbps\nWidth                                    : 1 920 pixels\nHeight                                   : 1 088 pixels\nOriginal height                          : 1 080 pixels\nDisplay aspect ratio                     : 16:9\nFrame rate                               : 25.000 fps\nOriginal frame rate                      : 12.500 fps\nColor space                              : YUV\nChroma subsampling                       : 4:2:0\nBit depth                                : 8 bits\nScan type                                : Progressive\nBits/(Pixel*Frame)                       : 0.213\nStream size                              : 4.60 GiB (97%)\n\nAudio\nID                                       : 1\nFormat                                   : AC-3\nFormat/Info                              : Audio Coding 3\nMode extension                           : CM (complete main)\nFormat settings, Endianness              : Big\nCodec ID                                 : 2000\nDuration                                 : 2s 315ms\nSource duration                          : 59mn 16s\nBit rate mode                            : Constant\nBit rate                                 : 384 Kbps\nChannel(s)                               : 2 channels\nChannel positions                        : Front: L R\nSampling rate                            : 48.0 KHz\nBit depth                                : 16 bits\nCompression mode                         : Lossy\nStream size                              : 163 MiB (3%)\nAlignment                                : Aligned on interleaves\nInterleave, duration                     : 32 ms (0.80 video frame)","torrent":{"xt":"urn:btih:756982bce33a1c32ab7a8e3689d7a9dfc46bd5bf","amp;dn":"Avishai.Cohen.Trio.Jazz.Sous.les.Pommiers.Coutances.France.2013","amp;tr":["udp%3A%2F%2Ftracker.openbittorrent.com%3A80","udp%3A%2F%2Fopen.demonii.com%3A1337","udp%3A%2F%2Ftracker.coppersurfer.tk%3A6969","udp%3A%2F%2Fexodus.desync.com%3A6969"],"infoHash":"756982bce33a1c32ab7a8e3689d7a9dfc46bd5bf","infoHashBuffer":{"type":"Buffer","data":[117,105,130,188,227,58,28,50,171,122,142,54,137,215,169,223,196,107,213,191]},"announce":[],"urlList":[]}}